<svg width="62" height="58" viewBox="0 0 62 58" fill="none" xmlns="http://www.w3.org/2000/svg">
<path d="M9.24693 57.7573C9.21973 57.7573 9.18573 57.7573 9.15853 57.7573C8.73693 57.7301 8.35613 57.5125 8.11813 57.1589L1.13453 46.8229C0.76053 46.2653 0.84213 45.5173 1.33853 45.0617L10.2601 36.8473C10.3077 36.7997 10.3621 36.7589 10.4233 36.7181C15.2717 33.4541 20.8817 35.1541 21.1197 35.2289C23.3841 35.8205 27.8653 35.9701 27.9061 35.9769H35.5833C37.8477 35.9769 39.7993 37.2145 40.6561 38.9757L52.6853 32.6517C55.3509 31.2169 58.4517 31.9649 59.7369 34.3517C61.0425 36.7861 59.9613 39.9141 57.3365 41.3285L36.2565 52.6301C36.1545 52.6845 36.0525 52.7253 35.9437 52.7525L34.8285 53.0313C34.7333 53.0585 34.6313 53.0653 34.5361 53.0721L15.0813 53.5957C14.5781 53.7861 12.6061 54.6701 10.2805 57.2949C10.0085 57.5873 9.64133 57.7573 9.24693 57.7573ZM4.04493 46.2653L9.43053 54.2349C12.1641 51.5965 14.3537 50.9573 14.4557 50.9301C14.5645 50.9029 14.6733 50.8825 14.7889 50.8825L34.3049 50.3589L35.1141 50.1549L56.0513 38.9349C57.3365 38.2481 57.9281 36.7385 57.3433 35.6437C56.7857 34.6033 55.3033 34.3517 53.9705 35.0657L41.0301 41.8521C40.5745 44.2049 38.3033 45.9933 35.5765 45.9933H24.9005C24.1525 45.9933 23.5405 45.3813 23.5405 44.6333C23.5405 43.8853 24.1525 43.2733 24.9005 43.2733H35.5765C37.0929 43.2733 38.3849 42.2397 38.3985 41.0089C38.3985 40.9953 38.3985 40.9817 38.3985 40.9681C38.3849 39.7373 37.0997 38.7037 35.5765 38.7037H27.8585C27.6205 38.6969 22.9829 38.5405 20.3581 37.8537C20.2561 37.8265 15.7477 36.4801 12.0213 38.9281L4.04493 46.2653Z" fill="#FF9139"/>
<path d="M28.7902 38.6967C28.695 38.6967 28.5998 38.6899 28.5046 38.6695C27.7702 38.5131 27.301 37.7855 27.4642 37.0511C29.2934 28.6055 25.805 20.3571 23.561 16.1955C23.2074 15.5359 23.4522 14.7063 24.1118 14.3527C24.7714 13.9991 25.601 14.2439 25.9546 14.9035C28.3754 19.3983 32.129 28.3267 30.123 37.6223C29.9802 38.2615 29.4158 38.6967 28.7902 38.6967Z" fill="#FF9139"/>
<path d="M23.2006 17.3448C22.5886 17.3448 21.9426 17.2292 21.283 16.9912C18.7194 16.0664 16.3734 13.5436 15.4418 10.7148C13.667 5.32237 14.8774 1.36477 14.9318 1.19477C15.1494 0.501166 15.8702 0.106766 16.5706 0.283566C16.7474 0.331166 21.0178 1.46677 24.6082 5.17277C26.8794 7.51877 27.6138 10.8916 27.3282 13.1968C27.131 14.8288 26.4306 16.0868 25.3698 16.7464C24.7374 17.1476 23.9962 17.3448 23.2006 17.3448ZM17.2778 3.42517C17.135 4.81237 17.1214 7.11757 18.0258 9.86477C18.7738 12.1428 20.6982 13.8836 22.2078 14.4344C22.6158 14.584 23.391 14.7812 23.9282 14.448C24.2614 14.2372 24.5266 13.6388 24.6218 12.8704C24.819 11.2656 24.2818 8.76997 22.643 7.07677C20.773 5.13197 18.6378 4.00317 17.2778 3.42517Z" fill="#FF9139"/>
<path d="M43.0499 27.9527C42.4991 27.9527 41.9959 27.9051 41.5403 27.8303C38.3443 27.3203 35.4475 25.2191 33.6115 22.0775C31.8503 19.0651 31.4287 15.4135 32.4759 12.3059C33.2103 10.1299 35.0191 7.15154 39.4663 5.31554C45.3891 2.87434 59.3291 4.66954 59.9207 4.74434C60.3219 4.79874 60.6823 5.02994 60.8999 5.37674C61.1175 5.72354 61.1651 6.14514 61.0359 6.53274C60.8523 7.07674 56.4663 19.8811 51.3595 24.3963L50.4551 23.3763L51.3595 24.3963C48.1771 27.2047 45.2599 27.9527 43.0499 27.9527ZM48.9319 6.75034C45.7087 6.75034 42.4923 7.00874 40.4931 7.83154C37.7187 8.97394 35.8351 10.8235 35.0395 13.1763C34.2371 15.5495 34.5771 18.3647 35.9507 20.7039C37.3583 23.1043 39.6091 24.7703 41.9619 25.1443C44.4507 25.5387 47.0007 24.6003 49.5439 22.3563C53.1343 19.1807 56.5479 10.7759 57.8671 7.24674C55.8815 7.04954 52.3999 6.75034 48.9319 6.75034Z" fill="#FF9139"/>
<path d="M45.2802 21.9348C45.1782 21.9348 45.0762 21.9144 44.9742 21.86L39.6362 19.1672C39.303 18.9972 39.167 18.5892 39.337 18.256C39.507 17.9228 39.915 17.7868 40.2482 17.9568L45.5862 20.6496C45.9194 20.8196 46.0554 21.2276 45.8854 21.5608C45.763 21.7988 45.525 21.9348 45.2802 21.9348Z" fill="#FF9139"/>
<path d="M44.3689 15.9372C44.3621 15.9372 44.3485 15.9372 44.3417 15.9372C43.9677 15.9236 43.6753 15.604 43.6889 15.23L43.8385 11.1772C43.8521 10.8032 44.1649 10.504 44.5457 10.5244C44.9197 10.538 45.2121 10.8576 45.1985 11.2316L45.0489 15.2844C45.0353 15.6516 44.7361 15.9372 44.3689 15.9372Z" fill="#FF9139"/>
<path d="M29.1913 28.6123C28.9873 28.6123 28.7765 28.5647 28.5725 28.4627C27.9061 28.1227 27.6341 27.2999 27.9741 26.6335C29.5925 23.4443 33.1761 20.9351 33.3325 20.8331C33.3529 20.8195 33.3665 20.8059 33.3869 20.7923L50.8221 9.95992C51.4613 9.56552 52.2977 9.75592 52.6921 10.3951C53.0865 11.0343 52.8961 11.8707 52.2569 12.2651L34.8625 23.0839C34.5633 23.2947 31.6461 25.4163 30.4017 27.8643C30.1637 28.3403 29.6877 28.6123 29.1913 28.6123Z" fill="#FF9139"/>
</svg>
