<svg width="66" height="66" viewBox="0 0 66 66" fill="none" xmlns="http://www.w3.org/2000/svg">
<g clip-path="url(#clip0)">
<path d="M65.9185 16.3778V16.2963C65.837 16.2148 65.837 16.0519 65.7556 15.9704L65.6741 15.8889C65.5926 15.8074 65.5111 15.726 65.4296 15.6445L33.5704 0.162994C33.2444 3.07448e-05 32.837 3.07448e-05 32.5111 0.162994L0.733333 15.6445L0.651852 15.726C0.57037 15.8074 0.488889 15.8889 0.325926 15.9704C0.244444 16.0519 0.162963 16.1334 0.162963 16.2963V16.3778C0 16.4593 0 16.6223 0 16.7037V48.4815C0 48.9704 0.244444 49.3778 0.651852 49.5408L32.4296 65.8371L32.5926 65.9185C32.7556 66 32.9185 66 33.0815 66C33.2444 66 33.4074 66 33.5704 65.9185L65.4296 49.6223C65.837 49.3778 66.0815 48.9704 66.0815 48.563V16.7852C66 16.6223 66 16.4593 65.9185 16.3778ZM11.9778 37.8889L21.4296 42.8593C21.837 43.0223 22.2444 43.0223 22.6519 42.8593C22.9778 42.6148 23.2222 42.2074 23.2222 41.8V29.3334L31.7778 33.7334V62.7408L2.44444 47.7482V18.7408L11.3259 23.3037V36.8297C11.3259 37.2371 11.5704 37.6445 11.9778 37.8889ZM23.7926 18.1704L30.3111 21.5926L21.837 25.9111L15.237 22.5704L23.7926 18.1704ZM13.7704 36.0149V24.526L20.7778 28.1111V39.763L13.7704 36.0149ZM33.4889 22.7334C33.8963 22.4889 34.1407 22.0815 34.1407 21.6741C34.1407 21.1852 33.8963 20.7778 33.4889 20.6148L24.363 15.8074C24.037 15.6445 23.6296 15.6445 23.2222 15.8074L12.4667 21.2667L3.99259 16.7037L33 2.60744L62.0074 16.7852L33 31.6148L24.5259 27.2148L33.4889 22.7334ZM63.5556 18.7408V47.7482L34.2222 62.7408V33.7334L63.5556 18.7408Z" fill="#FF9139"/>
<path d="M42.8592 43.3482C43.0221 43.4297 43.2666 43.5111 43.511 43.5111C43.674 43.5111 43.9184 43.4297 44.0814 43.3482L55.4888 37.4815C55.8962 37.2371 56.1407 36.8297 56.1407 36.4222V29.4148C56.1407 29.0074 55.8962 28.6 55.5703 28.3556C55.2444 28.1111 54.7555 28.1111 54.3481 28.2741L42.9407 34.1408C42.5333 34.3852 42.2888 34.7926 42.2888 35.2V42.2074C42.2888 42.6963 42.4518 43.1037 42.8592 43.3482ZM44.6518 36.0963L53.6147 31.5334V35.7704L44.6518 40.3334V36.0963Z" fill="#FF9139"/>
</g>
<defs>
<clipPath id="clip0">
<rect width="66" height="66" fill="white"/>
</clipPath>
</defs>
</svg>
